<?xml version="1.0" encoding="UTF-8"?>
<svg xmlns="http://www.w3.org/2000/svg" xmlns:xlink="http://www.w3.org/1999/xlink" width="112.5pt" height="30.000001pt" viewBox="0 0 112.5 30.000001" version="1.2">
<defs>
<clipPath id="clip1">
  <path d="M 4.488281 2 L 107 2 L 107 26 L 4.488281 26 Z M 4.488281 2 "/>
</clipPath>
</defs>
<g id="surface1">
<g clip-path="url(#clip1)" clip-rule="nonzero">
<path style=" stroke:none;fill-rule:evenodd;fill:rgb(0.389099%,0.389099%,0.389099%);fill-opacity:1;" d="M 68.257812 19.085938 C 71.535156 17.636719 74.679688 14.953125 77.527344 12.839844 C 80.570312 10.59375 83.910156 8.191406 87.539062 7.199219 C 94.113281 5.40625 100.75 6.605469 104.214844 10.425781 C 104.914062 11.195312 106.140625 12.503906 106.625 14.253906 C 108.519531 21.046875 102.039062 26.636719 96.617188 24.726562 C 93.707031 23.707031 91.734375 18.25 93.101562 15.867188 C 93.617188 14.960938 95.585938 13.171875 96.617188 13.246094 C 98.007812 13.34375 99.445312 15.925781 99.214844 17.679688 C 99.109375 18.472656 98.042969 20.617188 97.359375 19.085938 C 97.488281 19.015625 98.558594 18.25 98.65625 17.476562 C 98.3125 13.320312 93.992188 14.5625 93.65625 17.679688 C 92.976562 23.792969 101.882812 26.753906 105.144531 20.699219 C 109.230469 13.113281 101.132812 7.8125 95.878906 7.402344 C 81.019531 6.25 75.925781 19.117188 63.996094 21.304688 C 56.96875 22.59375 50.65625 20.523438 45.097656 15.257812 C 42.246094 17.652344 38.632812 20.128906 34.339844 19.691406 C 31.140625 19.367188 28.644531 16.960938 25.816406 16.269531 C 22.359375 20.453125 16.253906 21.910156 9.136719 21.101562 C 7.511719 20.917969 5.007812 21.109375 4.691406 19.289062 C 5.503906 18.402344 6.289062 19.476562 7.097656 19.691406 C 13.574219 21.421875 21.917969 19.992188 25.074219 15.257812 C 23.179688 14.125 22.992188 8.890625 25.261719 8.816406 C 27.332031 8.742188 28.402344 13.511719 26.742188 15.257812 C 28.554688 16.046875 31.027344 18.074219 33.785156 18.488281 C 38.257812 19.148438 42.253906 16.886719 44.347656 14.253906 C 43.082031 12.144531 41.328125 8.015625 42.316406 4.980469 C 43.261719 2.054688 47.277344 1.234375 48.800781 3.574219 C 50.910156 6.816406 47.289062 12.207031 46.023438 14.65625 C 51.550781 20.355469 61.347656 22.148438 68.257812 19.085938 Z M 44.902344 13.445312 C 47.207031 11.828125 48.691406 7.710938 47.875 3.976562 C 42.414062 0.261719 41.828125 10.617188 44.902344 13.445312 Z M 26 14.253906 C 26.773438 12.832031 26.371094 11.097656 25.445312 10.023438 C 24.136719 10.386719 24.925781 11.832031 24.332031 12.839844 C 24.835938 13.375 25.175781 14.074219 26 14.253906 Z M 26 14.253906 "/>
</g>
</g>
</svg>
